<svg width="345px" height="71px" viewBox="0 0 345 71" version="1.1" xmlns="http://www.w3.org/2000/svg" xmlns:xlink="http://www.w3.org/1999/xlink">
    <!-- Generator: Sketch 41 (35326) - http://www.bohemiancoding.com/sketch -->
    <title>Fill 1</title>
    <desc>Created with Sketch.</desc>
    <defs></defs>
    <g id="Page-1" stroke="none" stroke-width="1" fill="none" fill-rule="evenodd">
        <path d="M38.0700723,41.5207425 C36.5110723,42.0867425 33.9620723,41.6637425 32.9700723,43.3617425 C33.1140723,48.5987425 32.8260723,53.9887425 33.8210723,58.6597425 C35.2330723,59.5077425 36.9360723,58.8037425 38.4960723,58.8037425 C47.2770723,56.9617425 56.4860723,55.2587425 62.2960723,47.8947425 C63.0040723,46.6167425 62.1500723,45.4867425 61.1610723,44.6357425 C54.6430723,40.8107425 45.8610723,40.3867425 38.0700723,41.5207425 Z M134.692072,39.3927425 C131.431072,40.8107425 127.749072,41.9427425 125.765072,44.7787425 C126.049072,47.1837425 125.908072,50.1607425 128.315072,51.2937425 C132.282072,49.3127425 134.552072,44.7787425 136.107072,40.8107425 C136.392072,39.9587425 135.681072,38.9677425 134.692072,39.3927425 Z M87.6540723,44.2117425 C86.2380723,46.7607425 84.1100723,49.3127425 84.3980723,52.4237425 C84.5390723,53.5637425 85.6710723,54.4077425 86.6670723,54.2677425 C90.6300723,53.2807425 94.8810723,50.5887425 96.1560723,46.4787425 C94.4560723,44.2117425 94.0280723,41.3757425 94.1740723,38.6847425 C91.6200723,40.0997425 89.3560723,41.8027425 87.6540723,44.2117425 Z M34.6700723,14.1767425 L33.6770723,15.0267425 C32.6870723,19.8427425 33.3930723,25.5047425 33.1140723,30.6127425 L33.6770723,31.8847425 C45.4350723,30.6127425 55.9200723,26.9227425 66.1190723,21.5447425 C67.6810723,19.8427425 70.6550723,18.8507425 70.6550723,16.1597425 C70.3710723,15.0267425 69.2400723,14.1767425 68.2450723,13.8947425 C57.0530723,11.1977425 45.8610723,12.8977425 34.6700723,14.1767425 Z M32.9700723,1.56774249 C33.1140723,2.13174249 33.1140723,2.97974249 33.8210723,3.12074249 C46.5720723,1.56774249 61.4450723,0.28974249 73.0620723,5.10974249 C77.5990723,9.35874249 80.8530723,15.3087425 79.4390723,21.5447425 C77.5990723,27.3517425 71.5030723,31.6027425 66.1190723,34.0107425 C70.9390723,36.8457425 72.2110723,42.2257425 73.4870723,47.1837425 C76.6050723,38.5407425 84.9670723,29.7567425 94.4560723,28.9077425 C96.1560723,29.0497425 97.4300723,30.0447425 98.7050723,30.7547425 C101.965072,29.6147425 105.929072,28.1997425 108.906072,30.7547425 C111.314072,33.8677425 110.321072,38.4017425 109.470072,41.9427425 C111.172072,41.9427425 113.583072,41.6637425 114.569072,39.6767425 C114.288072,29.7567425 115.138072,19.7007425 118.398072,10.9177425 C120.382072,7.65774249 124.208072,7.23474249 127.323072,6.38474249 C128.315072,6.38474249 128.743072,7.23474249 128.598072,8.08274249 C126.333072,16.0157425 124.777072,24.3737425 124.913072,33.1577425 L125.341072,33.4457425 C130.726072,31.0327425 138.233072,26.3617425 143.758072,31.8847425 C146.025072,34.0107425 146.873072,36.7017425 146.729072,39.8167425 C145.596072,49.0267425 139.226072,58.2357425 130.155072,61.3517425 C126.474072,62.4857425 122.931072,60.9287425 120.238072,58.2357425 C117.549072,55.6897425 117.121072,52.1417425 115.283072,49.3127425 C112.024072,50.3007425 108.340072,51.0097425 104.799072,51.0097425 C99.8370723,56.8217425 93.6050723,63.6197425 85.2460723,61.9187425 C80.8530723,58.9417425 74.7650723,56.6747425 73.0620723,51.2937425 C71.2210723,54.6957425 68.6700723,58.6597425 65.1260723,61.3517425 C54.9280723,68.5767425 41.6100723,72.1227425 28.4340723,69.0017425 C23.0530723,65.8887425 20.9280723,60.0747425 21.4930723,53.8417425 L20.9280723,18.2817425 C19.2250723,17.0087425 17.3840723,18.8507425 15.5430723,19.1377425 C10.8690723,20.9767425 6.47707233,23.2407425 1.94307233,25.3697425 C0.952072333,25.6487425 0.523072333,24.5167425 0.101072333,23.8077425 C0.101072333,21.2607425 -0.466927667,17.9977425 1.09007233,15.8787425 C6.75807233,10.9177425 14.1280723,9.64274249 20.5020723,6.52274249 C22.4840723,2.13174249 27.1630723,1.14174249 31.4120723,0.42974249 C32.1190723,0.57374249 32.8260723,0.85874249 32.9700723,1.56774249 Z M259.221072,34.4347425 C252.279072,36.5567425 247.462072,43.9287425 246.895072,50.8667425 C246.895072,51.4347425 247.745072,52.1417425 248.455072,51.7197425 C253.557072,47.1837425 257.094072,41.3757425 259.502072,35.2847425 L259.221072,34.4347425 Z M289.115072,25.6487425 C288.549072,31.1747425 288.405072,37.6937425 288.265072,43.5047425 L288.690072,43.9287425 C292.656072,37.6937425 293.934072,29.8997425 300.021072,25.2257425 C303.569072,24.8007425 306.821072,25.5047425 309.657072,27.6337425 L309.938072,29.0497425 C307.817072,36.4177425 306.539072,44.6357425 308.099072,52.2837425 L309.091072,52.9957425 C311.499072,51.0097425 311.784072,46.1897425 316.032072,47.0427425 C319.574072,47.4657425 317.023072,52.5677425 321.131072,52.2837425 C324.248072,52.8537425 327.792072,52.9957425 330.060072,50.5887425 C329.916072,49.7337425 328.930072,49.4527425 328.358072,49.3127425 C322.972072,47.8947425 316.319072,48.0377425 313.482072,41.9427425 C311.355072,37.4087425 313.482072,32.4507425 316.601072,29.1947425 C320.566072,25.5047425 325.948072,26.5027425 331.048072,26.5027425 C333.459072,26.0747425 336.011072,25.7887425 337.991072,27.2077425 C340.965072,30.3257425 342.813072,34.4347425 341.958072,38.9677425 C341.535072,40.3867425 339.978072,41.2347425 338.703072,41.8027425 C337.284072,41.8027425 335.440072,41.9427425 334.308072,40.8107425 C332.608072,38.4017425 332.890072,34.5727425 329.637072,33.3027425 C327.930072,32.7347425 326.233072,34.1507425 325.383072,35.7087425 C324.675072,36.9827425 324.956072,38.8287425 325.662072,39.9587425 C330.199072,44.0707425 336.999072,42.7917425 341.958072,45.6307425 C343.660072,46.7607425 344.369072,48.4567425 344.369072,50.4417425 C343.941072,54.2677425 340.116072,56.9617425 336.854072,58.3767425 C330.060072,60.7917425 321.272072,60.9287425 314.899072,57.6667425 C312.636072,59.7897425 310.363072,61.7767425 307.104072,62.2047425 C303.569072,62.0647425 300.021072,60.2177425 298.751072,56.8217425 C297.192072,53.8417425 297.474072,50.3007425 296.766072,47.0427425 L296.341072,47.0427425 C294.071072,50.8667425 292.656072,54.9747425 291.098072,59.0857425 C288.690072,61.3517425 285.007072,62.2047425 281.890072,60.9287425 C278.772072,59.0857425 280.187072,55.1187425 278.772072,52.4237425 C275.372072,55.1187425 272.968072,59.9337425 268.431072,60.7917425 C266.022072,61.4957425 263.331072,60.7917425 261.349072,59.5077425 C259.502072,58.2357425 258.797072,56.2547425 257.378072,54.6957425 C253.125072,56.6747425 249.446072,62.0647425 243.921072,60.3617425 C240.805072,58.9417425 237.403072,56.8217425 235.985072,53.4197425 C235.700072,47.1837425 238.536072,41.6637425 241.939072,36.7017425 C246.043072,31.6027425 251.855072,26.0747425 258.938072,27.0657425 C261.771072,27.7777425 264.323072,29.3377425 266.729072,30.7547425 C271.119072,34.1507425 266.873072,39.5317425 267.865072,44.2117425 C267.865072,46.4787425 267.292072,49.0267425 268.855072,51.0097425 C270.130072,51.0097425 270.558072,49.5917425 271.119072,48.5987425 C274.096072,41.8027425 275.231072,34.1507425 279.764072,27.9167425 C282.316072,25.9337425 285.290072,24.6557425 288.549072,25.0847425 L289.115072,25.6487425 Z M240.663072,24.6557425 C241.088072,28.0627425 239.811072,31.3177425 238.678072,34.2917425 L228.337072,58.5187425 C226.213072,60.2177425 223.661072,62.7707425 220.683072,61.7767425 L219.269072,59.9337425 C215.867072,49.7337425 212.185072,39.6767425 209.354072,29.3377425 L209.492072,28.6257425 C212.326072,27.4947425 214.877072,25.0847425 218.140072,25.7887425 L219.694072,27.6337425 C221.680072,33.4457425 222.242072,39.8167425 225.075072,45.3457425 L225.503072,45.2017425 C226.494072,42.3687425 228.760072,39.6767425 228.055072,36.5567425 C226.494072,34.2917425 226.068072,31.0327425 226.778072,28.1997425 C227.768072,24.6557425 231.308072,21.5447425 234.996072,21.1177425 C237.403072,20.9767425 239.532072,22.6737425 240.663072,24.6557425 Z M217.005072,5.39174249 C219.128072,8.22474249 219.269072,12.1907425 218.140072,15.4497425 C217.424072,17.8597425 215.586072,19.8427425 213.318072,20.9767425 C211.191072,21.3997425 208.929072,21.9697425 207.084072,20.4057425 C206.661072,17.2927425 210.484072,12.1907425 205.811072,10.7727425 C195.185072,10.7727425 185.979072,15.7337425 177.613072,21.6847425 C175.773072,23.8077425 172.515072,25.5047425 173.509072,28.6257425 C178.606072,31.4627425 185.264072,30.3257425 190.652072,29.6147425 C194.618072,29.0497425 197.877072,26.6447425 202.128072,26.5027425 C204.962072,27.9167425 206.803072,30.8927425 208.363072,33.5837425 L208.221072,34.2917425 C197.455072,38.5407425 186.397072,42.3687425 177.051072,49.8797425 C174.640072,51.8597425 171.670072,54.4077425 172.233072,57.5257425 C175.495072,60.6477425 180.027072,57.9507425 183.425072,56.9617425 C191.220072,54.1267425 198.016072,48.4567425 205.102072,44.0707425 C208.643072,43.3617425 211.191072,45.9117425 213.746072,48.1787425 C213.605072,50.0167425 211.618072,51.5747425 210.205072,52.7087425 C199.435072,61.4957425 187.957072,69.0017425 173.933072,69.8477425 C168.126072,70.1347425 163.308072,66.5957425 160.196072,61.9187425 C156.790072,51.8597425 165.715072,43.9287425 172.803072,37.6937425 C169.262072,36.7017425 165.151072,35.8487425 163.452072,31.8847425 C161.749072,28.7707425 160.757072,23.9517425 163.167072,20.6967425 C174.076072,7.94274249 189.375072,1.99174249 205.525072,0.00974248952 C210.062072,-0.13325751 214.592072,1.28074249 217.005072,5.39174249 L217.005072,5.39174249 Z" id="Fill-1" fill="#FFFFFF"></path>
    </g>
</svg>